# xmcd CD database file
#
# Track frame offsets:
#	150
#	34725
#	67317
#	94172
#	119197
#	148027
#
# Disc length: 2425 seconds
#
# Revision: 0
# Processed by: cddbd v1.5.1PL0 Copyright (c) Steve Scherf et al.
# Submitted via: CDex 1.51
#
DISCID=5f097706
DTITLE=Booker Ervin - The in Between
DYEAR=1968
DGENRE=Jazz
TTITLE0=The in Between
TTITLE1=The Muse
TTITLE2=Mour
TTITLE3=Sweet Pea
TTITLE4=Largo
TTITLE5=Tyra
EXTD=YEAR: 1968
EXTT0=
EXTT1=
EXTT2=
EXTT3=
EXTT4=
EXTT5=
PLAYORDER=
